<svg xmlns="http://www.w3.org/2000/svg" viewBox="0 0 360 640" width="360" height="640">
  <!-- iPhone Frame -->
  <rect x="0" y="0" width="360" height="640" rx="24" ry="24" fill="#e8edf2" stroke="#d5dce4" stroke-width="2"/>
  <!-- Notch -->
  <rect x="120" y="0" width="120" height="28" rx="14" ry="14" fill="#d5dce4"/>
  <!-- Home Bar -->
  <rect x="130" y="618" width="100" height="5" rx="2.5" ry="2.5" fill="#c0c8d2"/>
  <!-- Grid Icon -->
  <rect x="130" y="270" width="30" height="30" rx="4" fill="none" stroke="#5d6d7e" stroke-width="2.5" opacity="0.5"/>
  <rect x="165" y="270" width="30" height="30" rx="4" fill="none" stroke="#5d6d7e" stroke-width="2.5" opacity="0.5"/>
  <rect x="200" y="270" width="30" height="30" rx="4" fill="none" stroke="#5d6d7e" stroke-width="2.5" opacity="0.5"/>
  <rect x="130" y="305" width="30" height="30" rx="4" fill="none" stroke="#5d6d7e" stroke-width="2.5" opacity="0.5"/>
  <rect x="165" y="305" width="30" height="30" rx="4" fill="none" stroke="#5d6d7e" stroke-width="2.5" opacity="0.5"/>
  <rect x="200" y="305" width="30" height="30" rx="4" fill="none" stroke="#5d6d7e" stroke-width="2.5" opacity="0.5"/>
  <rect x="130" y="340" width="30" height="30" rx="4" fill="none" stroke="#5d6d7e" stroke-width="2.5" opacity="0.5"/>
  <rect x="165" y="340" width="30" height="30" rx="4" fill="none" stroke="#5d6d7e" stroke-width="2.5" opacity="0.5"/>
  <rect x="200" y="340" width="30" height="30" rx="4" fill="none" stroke="#5d6d7e" stroke-width="2.5" opacity="0.5"/>
  <!-- Label -->
  <text x="180" y="420" text-anchor="middle" fill="#5d6d7e" font-family="system-ui, sans-serif" font-size="18" font-weight="600">Sitzplaneditor</text>
</svg>